<svg xmlns="http://www.w3.org/2000/svg" version="1.1" xmlns:xlink="http://www.w3.org/1999/xlink" width="512" height="512" x="0" y="0" viewBox="0 0 682.667 682.667" style="enable-background:new 0 0 512 512" xml:space="preserve" class=""><g><defs><clipPath id="a" clipPathUnits="userSpaceOnUse"><path d="M0 512h512V0H0Z" fill="#000000" opacity="1" data-original="#000000" class=""></path></clipPath></defs><g clip-path="url(#a)" transform="matrix(1.33333 0 0 -1.33333 0 682.667)"><path d="M0 0c0-68.39-26.63-132.68-74.98-181.02-3.7-3.7-7.53-7.31-11.37-10.71-46.68-41.42-106.89-64.25-169.56-64.27h-.09c-43.03 0-85.28 10.75-122.57 31.12l-87.48-17.18c-8.63 0-17.011 3.57-22.99 9.81-7.63 7.99-10.58 19.11-7.91 29.77l18.79 75.07C-500.32-88.89-512-44.98-512 0c0 62.68 22.83 122.93 64.279 169.65 3.391 3.83 6.991 7.65 10.711 11.37C-388.66 229.37-324.37 256-256 256h.09c68.349-.02 132.599-26.65 180.93-74.98C-26.63 132.66 0 68.38 0 0" style="fill-opacity:1;fill-rule:nonzero;stroke:none" transform="translate(511.91 256.18)" fill="#f25082" data-original="#6ed945" class="" opacity="1"></path><path d="M0 0c0-68.39-26.63-132.68-74.98-181.02-3.7-3.7-7.53-7.31-11.37-10.71-46.68-41.42-106.89-64.25-169.56-64.27v512c68.349-.02 132.599-26.65 180.93-74.98C-26.63 132.66 0 68.38 0 0" style="fill-opacity:1;fill-rule:nonzero;stroke:none" transform="translate(511.91 256.18)" fill="#e5396e" data-original="#54c12c" class="" opacity="1"></path><path d="M0 0c0-8.28-6.71-15-15-15h-214.3c-8.28 0-15 6.72-15 15 0 8.29 6.72 15 15 15H-15C-6.71 15 0 8.29 0 0" style="fill-opacity:1;fill-rule:nonzero;stroke:none" transform="translate(379.38 314.93)" fill="#ffffff" data-original="#ffffff" class="" opacity="1"></path><path d="M0 0c0-8.28-6.71-15-15-15h-214.3c-8.28 0-15 6.72-15 15 0 8.29 6.72 15 15 15H-15C-6.71 15 0 8.29 0 0" style="fill-opacity:1;fill-rule:nonzero;stroke:none" transform="translate(379.38 248.54)" fill="#ffffff" data-original="#ffffff" class="" opacity="1"></path><path d="M0 0c0-8.28-6.71-15-15-15h-214.3c-8.28 0-15 6.72-15 15 0 8.29 6.72 15 15 15H-15C-6.71 15 0 8.29 0 0" style="fill-opacity:1;fill-rule:nonzero;stroke:none" transform="translate(379.38 181.99)" fill="#ffffff" data-original="#ffffff" class="" opacity="1"></path><path d="M0 0c0-8.28-6.71-15-15-15h-108.38v30H-15C-6.71 15 0 8.29 0 0" style="fill-opacity:1;fill-rule:nonzero;stroke:none" transform="translate(379.38 181.99)" fill="#ffccdc" data-original="#ddebf0" class="" opacity="1"></path><path d="M0 0c0-8.28-6.71-15-15-15h-108.38v30H-15C-6.71 15 0 8.29 0 0" style="fill-opacity:1;fill-rule:nonzero;stroke:none" transform="translate(379.38 248.54)" fill="#ffccdc" data-original="#ddebf0" class="" opacity="1"></path><path d="M0 0h-108.38v30H0c8.29 0 15-6.71 15-15C15 6.72 8.29 0 0 0" style="fill-opacity:1;fill-rule:nonzero;stroke:none" transform="translate(364.38 299.93)" fill="#ffccdc" data-original="#ddebf0" class="" opacity="1"></path></g></g></svg>
